<?xml version="1.0" encoding="UTF-8"?><svg id="Calque_1" xmlns="http://www.w3.org/2000/svg" viewBox="0 0 119.85 119.83"><path id="Icon_awesome-instagram" d="M59.95,29.19c-16.97,0-30.73,13.76-30.73,30.73s13.76,30.73,30.73,30.73,30.73-13.76,30.73-30.73c.03-16.94-13.67-30.7-30.61-30.73-.04,0-.08,0-.12,0Zm0,50.7c-11.03,0-19.97-8.94-19.97-19.97,0-11.03,8.94-19.97,19.97-19.97,11.03,0,19.97,8.94,19.97,19.97-.01,11.03-8.95,19.96-19.97,19.97ZM99.09,27.93c0,3.96-3.21,7.16-7.16,7.16s-7.16-3.21-7.16-7.16,3.21-7.16,7.16-7.16h0c3.95,0,7.16,3.19,7.16,7.14,0,0,0,.02,0,.03Zm20.37,7.27c.2-9.32-3.28-18.34-9.68-25.11C102.99,3.72,93.98,.25,84.67,.42c-9.91-.56-39.56-.56-49.47,0C25.89,.24,16.89,3.7,10.1,10.07,3.71,16.85,.24,25.87,.42,35.18-.14,45.07-.14,74.73,.42,84.62c-.2,9.32,3.28,18.34,9.68,25.11,6.79,6.37,15.79,9.84,25.1,9.68,9.89,.56,39.55,.56,49.44,0,9.32,.2,18.34-3.28,25.11-9.68,6.38-6.79,9.85-15.8,9.68-25.11,.56-9.89,.56-39.52,0-49.41h.03Zm-12.8,60.03c-2.06,5.21-6.18,9.33-11.39,11.39-7.89,3.13-26.6,2.41-35.32,2.41s-27.46,.7-35.32-2.41c-5.21-2.06-9.33-6.18-11.39-11.39-3.13-7.89-2.41-26.6-2.41-35.32s-.7-27.47,2.41-35.32c2.05-5.22,6.18-9.35,11.39-11.4,7.89-3.13,26.6-2.41,35.32-2.41s27.46-.7,35.32,2.41c5.21,2.06,9.34,6.19,11.39,11.4,3.13,7.89,2.41,26.6,2.41,35.32s.72,27.46-2.41,35.32Z"/></svg>