<?xml version="1.0" encoding="UTF-8"?><svg id="Calque_1" xmlns="http://www.w3.org/2000/svg" viewBox="0 0 157.85 157.86"><path id="Icon_awesome-twitter-square" d="M140.94,0H16.91C7.57,0,0,7.57,0,16.91v124.04c0,9.34,7.57,16.91,16.91,16.91h124.03c9.34,0,16.91-7.57,16.91-16.91V16.91c0-9.34-7.57-16.91-16.91-16.91Zm-17.22,55.96c.07,.98,.07,2.01,.07,2.99,.25,36.07-28.79,65.5-64.85,65.75-.3,0-.6,0-.9,0-12.58,.03-24.89-3.56-35.48-10.34,1.85,.2,3.71,.3,5.57,.28,10.4,.02,20.5-3.45,28.69-9.87-9.89-.18-18.56-6.62-21.6-16.03,3.47,.6,7.02,.45,10.43-.42-10.8-2.2-18.54-11.71-18.5-22.73v-.28c3.2,1.79,6.77,2.79,10.43,2.93-6.43-4.28-10.3-11.5-10.29-19.22-.02-4.1,1.06-8.13,3.14-11.67,11.73,14.45,29.03,23.23,47.62,24.18-2.89-12.46,4.86-24.9,17.32-27.8,8.03-1.87,16.46,.68,22.11,6.69,5.19-.98,10.16-2.86,14.7-5.55-1.74,5.32-5.35,9.83-10.17,12.68,4.59-.52,9.08-1.73,13.32-3.59-3.14,4.64-7.07,8.7-11.59,12Z"/></svg>