<svg width="96" height="96" xmlns="http://www.w3.org/2000/svg" xmlns:xlink="http://www.w3.org/1999/xlink" xml:space="preserve" overflow="hidden"><defs><clipPath id="clip0"><rect x="12" y="0" width="96" height="96"/></clipPath></defs><g clip-path="url(#clip0)" transform="translate(-12 0)"><path d="M12 0 108 0 108 96 12 96Z" fill="#FFFFFF"/><path d="M83.6 22.8C87.1346 22.8 90 25.6654 90 29.2L90 31.6C90 35.1346 87.1346 38 83.6 38L24.4 38C20.8654 38 18 35.1346 18 31.6L18 29.2C18 25.6654 20.8654 22.8 24.4 22.8Z" fill="#A2F5B5"/><path d="M55.8568 45.6564C58.555 47.9396 58.8915 51.9779 56.6083 54.6761 56.379 54.947 56.1277 55.1984 55.8568 55.4276L40.9648 68.0276C38.2665 70.3108 34.2282 69.974 31.9451 67.276 30.9674 66.1204 30.4308 64.6556 30.4308 63.142L30.4308 37.942C30.4304 34.4074 33.2955 31.5417 36.8301 31.5413 38.344 31.5411 39.809 32.0777 40.9648 33.0556Z" fill="#A2F5B5"/><path d="M83.6 62.4C87.1346 62.4 90 65.2654 90 68.8L90 71.2C90 74.7346 87.1346 77.6 83.6 77.6L24.4 77.6C20.8654 77.6 18 74.7346 18 71.2L18 68.8C18 65.2654 20.8654 62.4 24.4 62.4Z" fill="#A2F5B5"/></g></svg>